<svg width="46" height="48" viewBox="0 0 46 48" fill="none" xmlns="http://www.w3.org/2000/svg">
<path d="M0 35.4626V11.7389L4.96422 9.22735L7.82405 11.3567L10.8188 6.19706L14.434 4.42256V42.8063L9.4698 40.2128V33.2786L10.8188 33.77V15.8885L7.82405 18.6458L4.96422 15.8885V30.9035L6.23226 31.8317V38.7113L0 35.4626Z" fill="#1E3A8A"/>
<path d="M31.485 24.0239V4.39526L46 11.9027V15.8885L41.3595 14.5235V13.4588L35.3971 11.3567V19.9016L46 17.8268V35.5718L31.485 43.0793V33.77L35.3971 32.7053V33.77L41.3595 30.9035V22.0583L31.485 24.0239Z" fill="#1E3A8A"/>
<path d="M19.3173 9.00898V1.6653L22.9055 0L26.3049 1.6653V9.00898L24.6862 7.83508V38.9843L26.3049 37.9742V45.6728L22.9865 47.42L19.3173 45.6728V37.9742L21.1788 38.9843V7.83508L19.3173 9.00898Z" fill="#1E3A8A"/>
</svg>
